<?xml version="1.0"?><svg version="1.2" baseProfile="tiny-ps" viewBox="0 0 300 300" xmlns="http://www.w3.org/2000/svg" xmlns:xlink="http://www.w3.org/1999/xlink"><title>logo</title><g><g fill="#0554ff" transform="matrix(.1 0 0 -.1 0 300)"><path d="M1280 2531c-409-89-721-403-812-815l-20-91 5-155 5-155 20-77c12-42 35-110 52-151l31-75 59-90 60-90 73-74 74-74 77-53c93-64 195-112 309-145l86-25 105-11 104-12 98 12 98 12 86 24c105 31 209 79 303 141l72 48 80 80 80 80 48 73c86 129 155 306 172 445l7 57h-530l-21-69-21-68-41-62-40-61-52-45-52-46-60-29-60-30-70-15c-38-8-86-15-105-15s-66 7-105 15l-70 15-62 30-61 30-51 46-50 45-41 62-40 62-21 65-21 65v190l21 65 21 65 40 62 41 62 46 41c61 53 134 94 208 116l60 18h170l71-22 71-22 61-40c67-45 119-98 163-168l30-47 20-67 21-68h530l-7 57c-26 210-141 438-301 599l-71 71-90 60-89 60-78 32c-43 18-112 42-154 53l-77 21-160 3-160 4-85-19z"/></g></g></svg>